<?xml version="1.0" encoding="UTF-8" standalone="no"?>
<svg
   width="460.26611"
   height="170"
   viewBox="0 0 460.26611 170"
   fill="none"
   version="1.1"
   id="svg75"
   sodipodi:docname="favicon.svg"
   inkscape:version="1.1.2 (0a00cf5339, 2022-02-04)"
   xmlns:inkscape="http://www.inkscape.org/namespaces/inkscape"
   xmlns:sodipodi="http://sodipodi.sourceforge.net/DTD/sodipodi-0.dtd"
   xmlns="http://www.w3.org/2000/svg"
   xmlns:svg="http://www.w3.org/2000/svg">
  <defs
     id="defs79" />
  <sodipodi:namedview
     id="namedview77"
     pagecolor="#ffffff"
     bordercolor="#666666"
     borderopacity="1.0"
     inkscape:pageshadow="2"
     inkscape:pageopacity="0.0"
     inkscape:pagecheckerboard="0"
     showgrid="false"
     fit-margin-top="0"
     fit-margin-left="0"
     fit-margin-right="0"
     fit-margin-bottom="0"
     inkscape:zoom="2"
     inkscape:cx="336.75"
     inkscape:cy="105"
     inkscape:window-width="1920"
     inkscape:window-height="1019"
     inkscape:window-x="0"
     inkscape:window-y="30"
     inkscape:window-maximized="1"
     inkscape:current-layer="svg75" />
  <path
     fill-rule="evenodd"
     clip-rule="evenodd"
     d="m 28.8881,55.9999 c -42.414667,-44.6666 -21.207333,-22.3333 0,0 z"
     fill="#d6d8dc"
     id="path61"
     sodipodi:nodetypes="cc" />
  <path
     fill-rule="evenodd"
     clip-rule="evenodd"
     d="m 44.2663,104.378 c -52.6668,-76.918667 -26.3334,-38.459333 0,0 z"
     fill="#a3a8b0"
     id="path63"
     sodipodi:nodetypes="cc" />
  <path
     fill-rule="evenodd"
     clip-rule="evenodd"
     d="m 415.4161,56.7491 c -300.1,-45.166067 -150.05,-22.583033 0,0 z m 10.85,36.5769 c -307.33333,-69.550667 -153.66667,-34.775333 0,0 z"
     fill="#7a818c"
     id="path65"
     sodipodi:nodetypes="cccc" />
  <path
     fill-rule="evenodd"
     clip-rule="evenodd"
     d="m 362.7501,1.25 c -0.693,1.911 -39.484,166.81 -39.484,167.844 0,0.498 5.4,0.906 12,0.906 6.6,0 12,-0.301 12,-0.668 0,-0.812 38.902,-166.315 39.508,-168.082 0.328,-0.954 -2.409,-1.25 -11.571,-1.25 -8.691,0 -12.125,0.345 -12.453,1.25 z M 114.2661,89.5 V 142 h 12.5 12.5 v -20 -20 h 3.411 c 3.399,0 3.449,0.069 14.183,19.602 5.924,10.78 11.275,19.794 11.889,20.03 0.615,0.236 7.005,0.303 14.2,0.148 l 13.083,-0.28 -11.857,-20.45 -11.856,-20.449 6.223,-3.284 c 11.849,-6.25 17.259,-15.869 16.491,-29.317 -0.732,-12.821 -6.48,-21.69 -17.254,-26.623 C 169.6681,37.664 163.6531,37 138.1301,37 h -23.864 z M 14.383,72.909 C 6.472,81.625 0,89.091 0,89.5 c 0,0.409 6.472,7.875 14.383,16.591 l 14.383,15.849 15.839,0.03 15.838,0.03 -5.838,-6.353 c -3.212,-3.494 -9.776,-10.633 -14.589,-15.866 -4.812,-5.232 -8.75,-9.858 -8.75,-10.281 0,-0.423 3.938,-5.049 8.75,-10.281 4.813,-5.233 11.377,-12.372 14.589,-15.866 L 60.443,57 44.605,57.03 28.766,57.06 Z M 400.2661,57.423 c 0,0.232 6.534,7.5 14.52,16.149 14.283,15.472 14.49,15.761 12.75,17.826 -0.974,1.155 -6.953,7.725 -13.289,14.601 -6.335,6.875 -12.127,13.288 -12.872,14.251 -1.276,1.65 -0.467,1.75 14.098,1.75 h 15.452 l 14.671,-15.949 c 8.068,-8.773 14.67,-16.22 14.67,-16.551 0,-0.331 -6.602,-7.778 -14.67,-16.551 L 430.9251,57 h -15.329 c -8.432,0 -15.33,0.19 -15.33,0.423 z m -234.561,3.517 c 5.849,5.501 5.593,15.331 -0.534,20.486 -2.895,2.437 -3.669,2.574 -14.482,2.574 h -11.423 V 70.916 57.833 l 11.922,0.333 c 11.028,0.309 12.118,0.517 14.517,2.774 z"
     fill="#353f51"
     id="path67" />
  <path
     fill-rule="evenodd"
     clip-rule="evenodd"
     d="m 252.0501,76.087 -0.284,39.088 -2.806,2.412 c -4.118,3.541 -9.935,3.325 -13.771,-0.51 -1.608,-1.608 -2.923,-3.821 -2.923,-4.918 0,-4.995 -0.434,-5.159 -13.626,-5.159 -12.34,0 -12.409,0.013 -11.956,2.25 0.251,1.237 0.719,4.187 1.04,6.555 1.841,13.587 12.467,23.556 27.989,26.259 17.056,2.97 32.667,-4.008 38.667,-17.285 2.373,-5.251 2.388,-5.498 2.678,-46.529 L 277.3491,37 h -12.508 -12.508 z"
     fill="#f50004"
     id="path73" />
</svg>
